<svg xmlns="http://www.w3.org/2000/svg" viewBox="0 0 471.67 290.66"><defs><style>.cls-1{fill:#353535;}</style></defs><title>logo-no-bg</title><g id="Layer_2" data-name="Layer 2"><g id="Layer_1-2" data-name="Layer 1"><polygon class="cls-1" points="349 176 353 176 353 191 357 191 357 176 360 176 360 172 349 172 349 176"/><polygon class="cls-1" points="369.03 179.75 365.76 172 362 172 362 191 366 191 366 182.44 365.88 181.19 368.75 186.78 369.31 186.78 372.06 181.31 372.12 181.19 372 182.44 372 191 376 191 376 172 372.24 172 369.03 179.75"/><polygon class="cls-1" points="38 49.2 18.04 2 0 2 0 118 19 118 19 53.78 19 45.25 38.33 87.41 57 44.51 57 52.98 57 118 76 118 76 2 57.96 2 38 49.2"/><path class="cls-1" d="M225.21,49.16c-9.37-4.81-18.1-8.83-18.1-17.65v-3c0-6.86,2.78-11.32,9.81-11.32,7.19,0,10,3.51,10,10.85V39.24h19.77V26.8c0-16.59-9.44-26.8-29.91-26.8s-30.4,10.85-30.4,28.39v4.55c0,17.81,12,24.71,23.11,30.49,9.53,5,18.42,9.31,18.42,18.94v6.12c0,6.38-2.54,11-10,11-8.24,0-10.78-4.47-10.78-11.65v-15H185.36V88.17c0,19.46,8.35,29.83,32.12,29.83,20.56,0,31.16-10.85,31.16-29V80C248.64,62,236.36,54.94,225.21,49.16Z"/><polygon class="cls-1" points="268 21 287 21 287 118 308 118 308 21 327 21 327 2 268 2 268 21"/><polygon class="cls-1" points="370 2 349 2 349 118 401 118 401 97 370 97 370 2"/><polygon class="cls-1" points="449.86 2 437.56 44.06 436.25 48.46 434.94 44.06 423.13 2 401.15 2 425.1 76.42 425.1 118 446.91 118 446.91 76.42 471.67 2 449.86 2"/><path class="cls-1" d="M54,252.49c0,10.87-2.59,16.06-10.84,16.06-8.57,0-11.16-5.19-11.16-16.85v-45c0-11.5,2.59-17,11-17,8.9,0,11,4.41,11,16.06V218H76V203.8c0-23.23-10.7-33.56-32.58-33.56C23.3,170.24,11,181.37,11,205.09v48.56c0,24.37,11,35.18,32.18,35.18,20.87,0,32.5-10.17,32.82-34.53V238H54Z"/><path class="cls-1" d="M215.06,172H185V288.83h29.9c20.47,0,35.1-10.11,35.1-34.71V206.71C250,181.94,235.21,172,215.06,172ZM228,251.74c0,12.61-5.3,17.95-14,17.95h-8V190.13h7.87c8.67,0,14.13,5.17,14.13,18Z"/><polygon class="cls-1" points="291 238.47 320 238.47 320 219.33 291 219.33 291 191.13 324 191.13 324 172 271 172 271 288.82 325 288.82 325 268.68 291 268.68 291 238.47"/><path class="cls-1" d="M131,0C111.44,0,98,10.82,98,34.42V83.58c0,23.6,13.45,34.42,33,34.42s34-10.71,34-34.86V34.54C165,11,150.54,0,131,0Zm12,81.92c0,13.23-2.69,18.83-11.62,18.83S119,95.15,119,81.81V36.11c0-13.4,3.45-18.83,12.25-18.83S143,22.71,143,36.11Z"/><path class="cls-1" d="M131,170.5c-19.91,0-33.6,11-33.6,35.05v50.07c0,24,13.69,35,33.6,35s34.62-10.9,34.62-35.49v-49.5C165.61,181.73,150.9,170.5,131,170.5Zm12.22,83.42c0,13.48-2.74,19.18-11.83,19.18s-12.61-5.7-12.61-19.29V207.27c0-13.64,3.52-19.17,12.47-19.17s12,5.53,12,19.17Z"/><rect class="cls-1" x="98" y="140" width="67" height="10" rx="2"/><rect class="cls-1" x="185" y="140" width="64" height="10" rx="2"/><rect class="cls-1" x="287" y="140" width="21" height="10" rx="2"/><rect class="cls-1" x="425" y="140" width="22" height="10" rx="2"/><rect class="cls-1" x="349" y="140" width="52" height="10" rx="2"/><rect class="cls-1" y="140" width="19" height="10" rx="2"/><rect class="cls-1" x="57" y="140" width="19" height="10" rx="2"/></g></g></svg>